<svg width="157" height="276" viewBox="0 0 157 276" fill="none" xmlns="http://www.w3.org/2000/svg">
<g filter="url(#filter0_bd)">
<path d="M36.8831 87.2938C36.8831 82.8134 36.8831 80.5732 37.6324 78.416C38.2916 76.5186 39.3433 74.669 40.637 73.1324C42.1077 71.3855 44.033 70.24 47.8835 67.9492L91.8851 41.771C101.511 36.044 106.324 33.1805 110.001 33.1729C113.235 33.1663 115.865 34.6615 117.513 37.4444C119.386 40.6081 119.386 46.2086 119.386 57.4097V180.61C119.386 185.09 119.386 187.33 118.637 189.487C117.978 191.385 116.926 193.234 115.632 194.771C114.161 196.518 112.236 197.663 108.386 199.954L64.3841 226.132C54.7578 231.859 49.9447 234.723 46.2679 234.731C43.0338 234.737 40.4043 233.242 38.7565 230.459C36.8831 227.295 36.8831 221.695 36.8831 210.494V87.2938Z" fill="white" fill-opacity="0.84"/>
</g>
<g clip-path="url(#clip0)">
<g opacity="0.35">
<mask id="mask0" mask-type="alpha" maskUnits="userSpaceOnUse" x="78" y="89" width="15" height="12">
<rect width="15.8892" height="2.93679" transform="matrix(0.859406 -0.511293 0 1 78.6876 97.5593)" fill="white"/>
</mask>
<g mask="url(#mask0)">
<path d="M92.3429 90.9046C92.3429 90.0925 89.2861 91.2535 85.5154 93.4969C81.7447 95.7402 78.6879 98.2163 78.6879 99.0284C78.6879 99.8389 81.7447 98.6778 85.5154 96.4345C89.2861 94.1911 92.3429 91.715 92.3429 90.9046Z" fill="#231F20"/>
</g>
</g>
<path d="M93.4842 79.6794C93.4842 85.6933 89.3529 93.0261 84.2566 96.0581C79.1603 99.0901 75.0287 96.6736 75.0287 90.6593C75.0287 84.6454 79.1603 77.3124 84.2566 74.2804C89.3529 71.2485 93.4842 73.6659 93.4842 79.6794Z" fill="#6FD844"/>
<mask id="mask1" mask-type="alpha" maskUnits="userSpaceOnUse" x="75" y="72" width="19" height="26">
<path fill-rule="evenodd" clip-rule="evenodd" d="M75.0287 90.6593C75.0287 96.6732 79.1603 99.0901 84.2566 96.0581C89.3529 93.0261 93.4842 85.6933 93.4842 79.6794C93.4842 73.6655 89.3529 71.2485 84.2566 74.2804C79.1603 77.3124 75.0287 84.6458 75.0287 90.6593Z" fill="white"/>
</mask>
<g mask="url(#mask1)">
<path d="M80.4405 80.8497C81.3116 79.5514 83.2858 77.8305 85.9579 76.8654C88.4787 75.9547 89.8744 76.3437 90.2917 76.8544C90.872 77.563 90.9617 79.3325 90.5423 82.7224C90.2161 85.3556 89.6581 87.4472 88.9864 88.5842C88.1755 89.9587 86.1071 91.7243 83.5935 92.6847C81.0795 93.6457 79.5333 93.5341 78.9035 92.8083C78.3593 92.1796 78.6907 87.5939 78.9035 86.4013C79.1173 85.2077 79.3418 82.6679 80.4405 80.8497Z" fill="black"/>
</g>
<mask id="mask2" mask-type="alpha" maskUnits="userSpaceOnUse" x="75" y="72" width="19" height="26">
<path fill-rule="evenodd" clip-rule="evenodd" d="M75.0287 90.6593C75.0287 96.6732 79.1603 99.0901 84.2566 96.0581C89.3529 93.0261 93.4842 85.6933 93.4842 79.6794C93.4842 73.6655 89.3529 71.2485 84.2566 74.2804C79.1603 77.3124 75.0287 84.6458 75.0287 90.6593Z" fill="white"/>
</mask>
<g mask="url(#mask2)">
<path d="M82.1132 75.7588C81.9957 76.5329 82.0246 77.0828 83.117 76.4953C84.4993 75.7525 85.8836 75.023 87.2023 74.7005C88.5213 74.3778 89.5794 73.8874 88.8637 72.9917C87.5034 72.5613 84.8737 73.3227 82.1132 75.7588Z" fill="black"/>
</g>
<mask id="mask3" mask-type="alpha" maskUnits="userSpaceOnUse" x="75" y="72" width="19" height="26">
<path fill-rule="evenodd" clip-rule="evenodd" d="M75.0287 90.6593C75.0287 96.6732 79.1603 99.0901 84.2566 96.0581C89.3529 93.0261 93.4842 85.6933 93.4842 79.6794C93.4842 73.6655 89.3529 71.2485 84.2566 74.2804C79.1603 77.3124 75.0287 84.6458 75.0287 90.6593Z" fill="white"/>
</mask>
<g mask="url(#mask3)">
<path d="M93.2687 77.4136C93.0855 77.3437 92.9122 77.147 92.7067 77.4348C92.5011 77.723 92.4148 78.2785 92.3605 79.37C92.3072 80.46 92.2849 82.041 91.8311 84.1217C91.3777 86.2035 91.497 86.588 92.2849 86.0471C93.1281 84.7678 94.1123 78.5443 93.2687 77.4136Z" fill="black"/>
</g>
<mask id="mask4" mask-type="alpha" maskUnits="userSpaceOnUse" x="75" y="72" width="19" height="26">
<path fill-rule="evenodd" clip-rule="evenodd" d="M75.0287 90.6593C75.0287 96.6732 79.1603 99.0901 84.2566 96.0581C89.3529 93.0261 93.4842 85.6933 93.4842 79.6794C93.4842 73.6655 89.3529 71.2485 84.2566 74.2804C79.1603 77.3124 75.0287 84.6458 75.0287 90.6593Z" fill="white"/>
</mask>
<g mask="url(#mask4)">
<path d="M86.3247 94.7389C86.5843 94.3792 86.7898 93.8371 86.8541 93.607C86.9191 93.3764 87.135 92.6619 86.0655 93.157C84.9954 93.6541 83.4388 94.5043 82.1312 94.8868C80.8232 95.2678 79.9737 95.6207 79.8414 96.5801C79.7097 97.5378 79.6557 98.3739 79.6557 98.3739C79.6557 98.3739 84.8875 96.8563 86.3247 94.7389Z" fill="black"/>
</g>
<mask id="mask5" mask-type="alpha" maskUnits="userSpaceOnUse" x="75" y="72" width="19" height="26">
<path fill-rule="evenodd" clip-rule="evenodd" d="M75.0287 90.6593C75.0287 96.6732 79.1603 99.0901 84.2566 96.0581C89.3529 93.0261 93.4842 85.6933 93.4842 79.6794C93.4842 73.6655 89.3529 71.2485 84.2566 74.2804C79.1603 77.3124 75.0287 84.6458 75.0287 90.6593Z" fill="white"/>
</mask>
<g mask="url(#mask5)">
<g opacity="0.44">
<mask id="mask6" mask-type="alpha" maskUnits="userSpaceOnUse" x="76" y="76" width="19" height="27">
<rect width="21.6084" height="15.3695" transform="matrix(0.859406 -0.511293 0 1 76.2545 87.4285)" fill="white"/>
</mask>
<g mask="url(#mask6)">
<path d="M87.2814 95.6729C82.6327 100.463 76.2545 100.621 76.2545 94.7732C84.6983 95.4001 92.3048 83.0075 93.0466 77.4386C95.0212 79.5758 97.5021 85.142 87.2814 95.6729Z" fill="#3B6D24"/>
</g>
</g>
</g>
<g opacity="0.35">
<mask id="mask7" mask-type="alpha" maskUnits="userSpaceOnUse" x="62" y="100" width="18" height="14">
<rect width="19.0788" height="3.46777" transform="matrix(0.859406 -0.511293 0 1 62.8107 109.798)" fill="white"/>
</mask>
<g mask="url(#mask7)">
<path d="M79.2071 101.777C79.2071 100.819 75.536 102.227 71.009 104.921C66.4813 107.614 62.811 110.574 62.811 111.531C62.811 112.488 66.4813 111.082 71.009 108.388C75.536 105.695 79.2071 102.734 79.2071 101.777Z" fill="#231F20"/>
</g>
</g>
<path d="M77.9672 90.7502C77.9672 97.3718 73.4178 105.447 67.8066 108.785C62.1947 112.124 57.646 109.462 57.646 102.84C57.646 96.2189 62.1947 88.145 67.8066 84.8062C73.4175 81.4681 77.9672 84.1286 77.9672 90.7502Z" fill="#6FD844"/>
<mask id="mask8" mask-type="alpha" maskUnits="userSpaceOnUse" x="57" y="83" width="21" height="28">
<path fill-rule="evenodd" clip-rule="evenodd" d="M57.6456 102.84C57.6456 109.462 62.1943 112.124 67.8062 108.785C73.4175 105.447 77.9668 97.3724 77.9668 90.7504C77.9668 84.1293 73.4175 81.4681 67.8062 84.8064C62.1947 88.145 57.6456 96.2187 57.6456 102.84Z" fill="white"/>
</mask>
<g mask="url(#mask8)">
<path d="M71.2879 87.378C72.4725 87.2545 73.3652 89.5231 74.0105 91.9401C74.5443 93.9378 74.8468 95.7446 74.5622 96.9062C73.7568 100.193 69.854 104.246 67.1146 106.156C65.5054 107.277 64.0802 107.741 63.4511 107.512C62.3009 107.091 61.7742 105.581 61.2476 103.806C60.5704 101.525 60.1802 99.1213 60.7725 97.3265C61.3555 95.5607 63.5927 92.6335 66.1923 90.3641C68.0328 88.7564 69.8193 87.5313 71.2879 87.378Z" fill="black"/>
</g>
<mask id="mask9" mask-type="alpha" maskUnits="userSpaceOnUse" x="57" y="83" width="21" height="28">
<path fill-rule="evenodd" clip-rule="evenodd" d="M57.6456 102.84C57.6456 109.462 62.1943 112.124 67.8062 108.785C73.4175 105.447 77.9668 97.3724 77.9668 90.7504C77.9668 84.1293 73.4175 81.4681 67.8062 84.8064C62.1947 88.145 57.6456 96.2187 57.6456 102.84Z" fill="white"/>
</mask>
<g mask="url(#mask9)">
<path d="M61.4077 91.107C61.2671 92.3479 61.3789 92.7037 62.2173 92.0556C63.041 91.4188 64.1671 89.9245 65.7364 88.5601C67.3053 87.1959 68.3232 86.4528 68.789 85.6532C69.1042 85.1128 69.0919 84.7879 68.713 84.2321C65.4157 85.9017 63.4026 88.3414 61.4077 91.107Z" fill="black"/>
</g>
<mask id="mask10" mask-type="alpha" maskUnits="userSpaceOnUse" x="57" y="83" width="21" height="28">
<path fill-rule="evenodd" clip-rule="evenodd" d="M57.6456 102.84C57.6456 109.462 62.1943 112.124 67.8062 108.785C73.4175 105.447 77.9668 97.3724 77.9668 90.7504C77.9668 84.1293 73.4175 81.4681 67.8062 84.8064C62.1947 88.145 57.6456 96.2187 57.6456 102.84Z" fill="white"/>
</mask>
<g mask="url(#mask10)">
<path d="M76.1298 84.5492C75.1669 84.9477 74.5107 85.8066 75.0342 87.1444C75.5585 88.4814 76.1374 90.0172 76.3471 91.5697C76.4846 92.5884 76.9689 94.2245 78.092 91.8316C78.8782 90.1271 79.1291 83.555 76.1298 84.5492Z" fill="black"/>
</g>
<mask id="mask11" mask-type="alpha" maskUnits="userSpaceOnUse" x="57" y="83" width="21" height="28">
<path fill-rule="evenodd" clip-rule="evenodd" d="M57.6456 102.84C57.6456 109.462 62.1943 112.124 67.8062 108.785C73.4175 105.447 77.9668 97.3724 77.9668 90.7504C77.9668 84.1293 73.4175 81.4681 67.8062 84.8064C62.1947 88.145 57.6456 96.2187 57.6456 102.84Z" fill="white"/>
</mask>
<g mask="url(#mask11)">
<path d="M67.0884 109.479C66.6515 109.396 66.052 109.2 66.8086 108.372C67.5659 107.543 68.8406 106.743 70.2597 105.356C71.1194 104.515 72.8664 102.478 73.5653 102.096C74.2645 101.715 74.0699 102.371 74.1576 103.028C72.9926 105.508 69.9417 108.607 67.0884 109.479Z" fill="black"/>
</g>
<mask id="mask12" mask-type="alpha" maskUnits="userSpaceOnUse" x="57" y="83" width="21" height="28">
<path fill-rule="evenodd" clip-rule="evenodd" d="M57.6456 102.84C57.6456 109.462 62.1943 112.124 67.8062 108.785C73.4175 105.447 77.9668 97.3724 77.9668 90.7504C77.9668 84.1293 73.4175 81.4681 67.8062 84.8064C62.1947 88.145 57.6456 96.2187 57.6456 102.84Z" fill="white"/>
</mask>
<g mask="url(#mask12)">
<path d="M59.6408 109.199C60.417 109.185 60.9055 108.7 60.3562 107.493C59.6793 106.008 59.1712 104.732 58.879 102.875C58.582 100.988 58.153 101.151 57.5934 101.942C56.9818 103.989 57.4569 109.366 59.6408 109.199Z" fill="black"/>
</g>
<mask id="mask13" mask-type="alpha" maskUnits="userSpaceOnUse" x="57" y="83" width="21" height="28">
<path fill-rule="evenodd" clip-rule="evenodd" d="M57.6456 102.84C57.6456 109.462 62.1943 112.124 67.8062 108.785C73.4175 105.447 77.9668 97.3724 77.9668 90.7504C77.9668 84.1293 73.4175 81.4681 67.8062 84.8064C62.1947 88.145 57.6456 96.2187 57.6456 102.84Z" fill="white"/>
</mask>
<g mask="url(#mask13)">
<g opacity="0.44">
<mask id="mask14" mask-type="alpha" maskUnits="userSpaceOnUse" x="58" y="83" width="21" height="34">
<rect width="23.2168" height="21.3461" transform="matrix(0.859406 -0.511293 0 1 58.5745 95.3866)" fill="white"/>
</mask>
<g mask="url(#mask14)">
<path d="M70.5375 108.923C65.2727 114.348 58.5745 114.738 58.5745 108.117C70.5 107.585 76.5048 92.1349 76.115 84.9514C78.3505 87.3715 82.1099 96.9993 70.5375 108.923Z" fill="#3B6D24"/>
</g>
</g>
</g>
<g opacity="0.6">
<mask id="mask15" mask-type="alpha" maskUnits="userSpaceOnUse" x="78" y="77" width="4" height="6">
<rect width="4.1056" height="2.71126" transform="matrix(0.859406 -0.511293 0 1 78.4618 79.5148)" fill="white"/>
</mask>
<g mask="url(#mask15)">
<path d="M81.9493 77.7357C82.1559 78.0797 81.5509 79.2931 80.599 80.4447C79.6475 81.5957 78.7083 82.2502 78.5021 81.906C78.2958 81.5618 78.9005 80.3491 79.852 79.1976C80.8049 78.0454 81.7431 77.3915 81.9493 77.7357Z" fill="white"/>
</g>
</g>
<g opacity="0.6">
<mask id="mask16" mask-type="alpha" maskUnits="userSpaceOnUse" x="58" y="93" width="4" height="8">
<rect width="3.8072" height="4.95522" transform="matrix(0.859406 -0.511293 0 1 58.3456 95.2458)" fill="white"/>
</mask>
<g mask="url(#mask16)">
<path d="M61.3862 93.5353C61.8489 93.6405 61.5952 95.1654 60.8196 96.9406C60.0438 98.7156 59.0396 100.07 58.5769 99.9647C58.1139 99.8597 58.3676 98.3349 59.1431 96.5601C59.919 94.7838 60.9231 93.4303 61.3862 93.5353Z" fill="white"/>
</g>
</g>
<path d="M81.0205 84.3659C81.0205 84.3659 82.3123 83.7376 82.4302 83.6837C82.466 83.5249 82.5853 82.7802 82.8985 82.6178C83.1831 82.4696 83.1473 83.1001 83.1257 83.3584C83.0875 83.8212 82.9679 84.5183 82.3079 84.7236C82.2463 85.2339 82.179 85.9774 82.1401 86.3197C82.3907 86.1869 83.004 85.7364 82.8053 87.1158C82.6423 88.2511 82.3192 88.4121 82.2408 88.4486C82.1625 88.4843 81.7867 88.63 81.9039 87.3737C81.3079 87.6209 80.4887 87.9687 80.4887 87.9687C80.4887 87.9687 80.0992 91.0828 82.003 90.3226C83.8039 89.6012 84.2027 87.4672 84.3103 86.5923C84.4186 85.7162 84.3931 84.7132 83.6262 84.6536C83.6262 84.673 83.6314 84.5625 83.6314 84.5625C83.6314 84.5625 84.4237 83.9726 84.632 82.5945C84.838 81.234 84.4344 80.2762 83.2941 80.7648C82.1271 81.2648 81.3718 82.4601 81.0205 84.3659Z" fill="#FFEF29"/>
<path fill-rule="evenodd" clip-rule="evenodd" d="M88.5991 78.929C88.4994 79.1834 87.3313 82.1264 87.3313 82.1264C88.1041 81.579 89.0412 82.0335 88.6661 84.4592C88.2918 86.8837 87.168 88.2614 86.0721 88.6108C85.2876 88.8613 84.4691 88.122 84.9377 85.521C85.0865 84.6917 85.2643 83.9743 85.5895 83.1217C85.9074 82.2876 86.2244 81.5221 86.5174 80.8144C86.7266 80.3093 86.9236 79.8337 87.0999 79.3836C87.0999 79.3836 88.4664 78.9588 88.5991 78.929ZM86.6235 86.6326C86.9239 86.5244 87.2299 85.8463 87.3296 84.9766C87.4282 84.1066 87.2787 83.7291 86.9996 83.8388C86.7184 83.9493 86.4396 84.5532 86.3155 85.4144C86.1938 86.2607 86.2921 86.7515 86.6235 86.6326Z" fill="#FFEF29"/>
<path d="M64.6154 94.5489C64.655 95.9447 65.0228 99.5668 65.0816 100.17C65.217 100.061 65.4693 99.8191 65.4693 99.8191C65.865 99.0759 66.2865 98.4978 66.8416 98.0458C67.3972 97.5932 68.5106 96.8294 68.7997 98.1826C69.0428 99.3255 68.5199 100.219 67.8444 100.937C67.3233 101.49 66.5041 101.958 65.5921 101.667C65.5374 101.709 65.3655 101.863 65.3655 101.863L65.8822 103.964C65.8822 103.964 67.2909 103.812 68.7248 102.333C70.1586 100.856 71.2958 98.3075 70.6371 96.2133C69.9781 94.118 68.1888 94.5582 66.5673 96.6656C66.5027 96.399 66.3996 95.3331 66.3996 95.3331C66.3996 95.3331 67.0197 94.6737 69.1902 92.6965C69.0428 92.1579 68.7763 91.2504 68.6344 90.8165C67.7451 91.5565 65.8874 93.2973 64.6154 94.5489Z" fill="#FFEF29"/>
<path d="M98.4633 68.1416C98.4633 70.7284 96.6864 73.8826 94.4935 75.1873C92.3021 76.4911 90.5241 75.4517 90.5241 72.865C90.5241 70.2778 92.3021 67.1229 94.4935 65.8191C96.6864 64.5145 98.4633 65.5545 98.4633 68.1416Z" fill="#F9EC31"/>
<path d="M91.7091 72.1357L92.6059 71.6021V70.4984L93.2536 70.113V71.2168L94.156 70.6799V71.3979L93.2536 71.9347V73.0519L92.6059 73.4372V72.3201L91.7091 72.8536V72.1357Z" fill="black"/>
<path d="M94.4045 72.2389L95.3186 71.6951V68.39L95.3079 68.3964L95.1017 68.6894L94.5162 69.5115L94.1553 69.1442L95.6537 66.8257L96.1333 66.5404V71.2104L97.0278 70.6783V71.5313L94.4045 73.092V72.2389Z" fill="black"/>
<mask id="mask17" mask-type="alpha" maskUnits="userSpaceOnUse" x="90" y="65" width="9" height="11">
<path fill-rule="evenodd" clip-rule="evenodd" d="M90.5241 72.865C90.5241 75.4517 92.3021 76.4911 94.4935 75.1873C96.6864 73.8826 98.4633 70.7284 98.4633 68.1416C98.4633 65.5545 96.6864 64.5145 94.4935 65.8191C92.3021 67.1229 90.5241 70.2778 90.5241 72.865Z" fill="white"/>
</mask>
<g mask="url(#mask17)">
<g opacity="0.55">
<mask id="mask18" mask-type="alpha" maskUnits="userSpaceOnUse" x="91" y="65" width="8" height="13">
<rect width="8.8656" height="7.32007" transform="matrix(0.859406 -0.511293 0 1 91.1411 70.277)" fill="white"/>
</mask>
<g mask="url(#mask18)">
<path d="M95.3767 74.6587C93.31 76.7879 91.1408 77.6055 91.1408 75.0066C92.1116 75.6674 94.5066 74.0219 95.9511 72.1374C97.3956 70.253 98.2543 67.2463 97.9903 66.2019C98.8673 67.1526 99.9188 69.9789 95.3767 74.6587Z" fill="#C68E5C"/>
</g>
</g>
</g>
</g>
<defs>
<filter id="filter0_bd" x="0.175968" y="0.78432" width="155.917" height="274.972" filterUnits="userSpaceOnUse" color-interpolation-filters="sRGB">
<feFlood flood-opacity="0" result="BackgroundImageFix"/>
<feGaussianBlur in="BackgroundImage" stdDeviation="10.7962"/>
<feComposite in2="SourceAlpha" operator="in" result="effect1_backgroundBlur"/>
<feColorMatrix in="SourceAlpha" type="matrix" values="0 0 0 0 0 0 0 0 0 0 0 0 0 0 0 0 0 0 127 0"/>
<feOffset dy="4.31848"/>
<feGaussianBlur stdDeviation="18.3535"/>
<feColorMatrix type="matrix" values="0 0 0 0 0.113725 0 0 0 0 0.472627 0 0 0 0 0.67451 0 0 0 0.12 0"/>
<feBlend mode="normal" in2="effect1_backgroundBlur" result="effect2_dropShadow"/>
<feBlend mode="normal" in="SourceGraphic" in2="effect2_dropShadow" result="shape"/>
</filter>
<clipPath id="clip0">
<rect width="48" height="48" fill="white" transform="matrix(0.859406 -0.511293 0 1 57.5088 78.2228)"/>
</clipPath>
</defs>
</svg>
